<?xml version="1.0"?>
<svg x="0" y="0" width="810.0" height="1395.0">
  <rect x="0" y="0" width="810.0" height="1395.0" style="fill:#ffffe6;"/>
  <text x="45.0" y="45.0" style="fill:black;font-size:32px;font-weight:bold;">mqtt_cs_8</text>
  <rect x="90.0" y="225.0" width="675.0" height="1125.0" rx="12.0" ry="12.0" style="fill:none;stroke:black;stroke-width:1;"/>
  <text x="95.0" y="240.0" style="fill:black;font-size:16px;font-weight:bold;">MQTTClientServer</text>
  <rect x="135.0" y="270.0" width="585.0" height="1035.0" rx="12.0" ry="12.0" style="fill:none;stroke:black;stroke-width:1;"/>
  <text x="140.0" y="285.0" style="fill:black;font-size:16px;font-weight:bold;">Disconnected</text>
  <line x1="180.0" y1="135.0" x2="180.0" y2="225.0" style="stroke:black;stroke-width:1;"/>
  <line x1="172.5" y1="217.5" x2="180.0" y2="225.0" style="stroke:black;stroke-width:1;"/>
  <line x1="180.0" y1="225.0" x2="187.5" y2="217.5" style="stroke:black;stroke-width:1;"/>
  <circle cx="180.0" cy="135.0" r="5.625" style="fill:black;"/>
  <line x1="225.0" y1="135.0" x2="225.0" y2="270.0" style="stroke:black;stroke-width:1;"/>
  <line x1="217.5" y1="262.5" x2="225.0" y2="270.0" style="stroke:black;stroke-width:1;"/>
  <line x1="225.0" y1="270.0" x2="232.5" y2="262.5" style="stroke:black;stroke-width:1;"/>
  <circle cx="225.0" cy="135.0" r="5.625" style="fill:black;"/>
  <rect x="180.0" y="360.0" width="135.0" height="90.0" rx="12.0" ry="12.0" style="fill:none;stroke:black;stroke-width:1;"/>
  <text x="185.0" y="375.0" style="fill:black;font-size:16px;font-weight:bold;">Connecting</text>
  <line x1="135.0" y1="315.0" x2="225.0" y2="315.0" style="stroke:black;stroke-width:1;"/>
  <text x="143.0" y="311.0" style="fill:black;font-size:14px;text-anchor:start;">Connect</text>
  <line x1="225.0" y1="315.0" x2="225.0" y2="360.0" style="stroke:black;stroke-width:1;"/>
  <text x="143.0" y="311.0" style="fill:black;font-size:14px;text-anchor:start;">Connect</text>
  <line x1="217.5" y1="352.5" x2="225.0" y2="360.0" style="stroke:black;stroke-width:1;"/>
  <line x1="225.0" y1="360.0" x2="232.5" y2="352.5" style="stroke:black;stroke-width:1;"/>
  <rect x="180.0" y="495.0" width="495.0" height="765.0" rx="12.0" ry="12.0" style="fill:none;stroke:black;stroke-width:1;"/>
  <text x="185.0" y="510.0" style="fill:black;font-size:16px;font-weight:bold;">Connected</text>
  <line x1="315.0" y1="405.0" x2="360.0" y2="405.0" style="stroke:black;stroke-width:1;"/>
  <text x="323.0" y="401.0" style="fill:black;font-size:14px;text-anchor:start;">Succeded</text>
  <line x1="360.0" y1="405.0" x2="360.0" y2="495.0" style="stroke:black;stroke-width:1;"/>
  <text x="323.0" y="401.0" style="fill:black;font-size:14px;text-anchor:start;">Succeded</text>
  <line x1="352.5" y1="487.5" x2="360.0" y2="495.0" style="stroke:black;stroke-width:1;"/>
  <line x1="360.0" y1="495.0" x2="367.5" y2="487.5" style="stroke:black;stroke-width:1;"/>
  <line x1="180.0" y1="405.0" x2="90.0" y2="405.0" style="stroke:black;stroke-width:1;"/>
  <text x="172.0" y="401.0" style="fill:black;font-size:14px;text-anchor:end;">Failed</text>
  <line x1="97.5" y1="397.5" x2="90.0" y2="405.0" style="stroke:black;stroke-width:1;"/>
  <line x1="90.0" y1="405.0" x2="97.5" y2="412.5" style="stroke:black;stroke-width:1;"/>
  <line x1="180.0" y1="540.0" x2="90.0" y2="540.0" style="stroke:black;stroke-width:1;"/>
  <text x="172.0" y="536.0" style="fill:black;font-size:14px;text-anchor:end;">Disconnect</text>
  <line x1="97.5" y1="532.5" x2="90.0" y2="540.0" style="stroke:black;stroke-width:1;"/>
  <line x1="90.0" y1="540.0" x2="97.5" y2="547.5" style="stroke:black;stroke-width:1;"/>
  <rect x="225.0" y="540.0" width="405.0" height="675.0" rx="12.0" ry="12.0" style="fill:none;stroke:black;stroke-width:1;"/>
  <text x="230.0" y="555.0" style="fill:black;font-size:16px;font-weight:bold;">AwaitSubscribe</text>
  <line x1="405.0" y1="450.0" x2="405.0" y2="540.0" style="stroke:black;stroke-width:1;"/>
  <line x1="397.5" y1="532.5" x2="405.0" y2="540.0" style="stroke:black;stroke-width:1;"/>
  <line x1="405.0" y1="540.0" x2="412.5" y2="532.5" style="stroke:black;stroke-width:1;"/>
  <circle cx="405.0" cy="450.0" r="5.625" style="fill:black;"/>
  <rect x="270.0" y="630.0" width="135.0" height="90.0" rx="12.0" ry="12.0" style="fill:none;stroke:black;stroke-width:1;"/>
  <text x="275.0" y="645.0" style="fill:black;font-size:16px;font-weight:bold;">Subscribing</text>
  <line x1="225.0" y1="585.0" x2="337.5" y2="585.0" style="stroke:black;stroke-width:1;"/>
  <text x="233.0" y="581.0" style="fill:black;font-size:14px;text-anchor:start;">Subscribe</text>
  <line x1="337.5" y1="585.0" x2="337.5" y2="630.0" style="stroke:black;stroke-width:1;"/>
  <text x="233.0" y="581.0" style="fill:black;font-size:14px;text-anchor:start;">Subscribe</text>
  <line x1="330.0" y1="622.5" x2="337.5" y2="630.0" style="stroke:black;stroke-width:1;"/>
  <line x1="337.5" y1="630.0" x2="345.0" y2="622.5" style="stroke:black;stroke-width:1;"/>
  <line x1="270.0" y1="675.0" x2="180.0" y2="675.0" style="stroke:black;stroke-width:1;"/>
  <text x="262.0" y="671.0" style="fill:black;font-size:14px;text-anchor:end;">Failed</text>
  <line x1="187.5" y1="667.5" x2="180.0" y2="675.0" style="stroke:black;stroke-width:1;"/>
  <line x1="180.0" y1="675.0" x2="187.5" y2="682.5" style="stroke:black;stroke-width:1;"/>
  <rect x="270.0" y="765.0" width="315.0" height="405.0" rx="12.0" ry="12.0" style="fill:none;stroke:black;stroke-width:1;"/>
  <text x="275.0" y="780.0" style="fill:black;font-size:16px;font-weight:bold;">Subscribed</text>
  <line x1="405.0" y1="675.0" x2="450.0" y2="675.0" style="stroke:black;stroke-width:1;"/>
  <text x="413.0" y="671.0" style="fill:black;font-size:14px;text-anchor:start;">Succeded</text>
  <line x1="450.0" y1="675.0" x2="450.0" y2="765.0" style="stroke:black;stroke-width:1;"/>
  <text x="413.0" y="671.0" style="fill:black;font-size:14px;text-anchor:start;">Succeded</text>
  <line x1="442.5" y1="757.5" x2="450.0" y2="765.0" style="stroke:black;stroke-width:1;"/>
  <line x1="450.0" y1="765.0" x2="457.5" y2="757.5" style="stroke:black;stroke-width:1;"/>
  <rect x="315.0" y="810.0" width="225.0" height="315.0" rx="12.0" ry="12.0" style="fill:none;stroke:black;stroke-width:1;"/>
  <text x="320.0" y="825.0" style="fill:black;font-size:16px;font-weight:bold;">AwaitPublishing</text>
  <line x1="517.5" y1="720.0" x2="517.5" y2="810.0" style="stroke:black;stroke-width:1;"/>
  <line x1="510.0" y1="802.5" x2="517.5" y2="810.0" style="stroke:black;stroke-width:1;"/>
  <line x1="517.5" y1="810.0" x2="525.0" y2="802.5" style="stroke:black;stroke-width:1;"/>
  <circle cx="517.5" cy="720.0" r="5.625" style="fill:black;"/>
  <rect x="360.0" y="900.0" width="135.0" height="90.0" rx="12.0" ry="12.0" style="fill:none;stroke:black;stroke-width:1;"/>
  <text x="365.0" y="915.0" style="fill:black;font-size:16px;font-weight:bold;">Publishing</text>
  <line x1="315.0" y1="855.0" x2="427.5" y2="855.0" style="stroke:black;stroke-width:1;"/>
  <text x="323.0" y="851.0" style="fill:black;font-size:14px;text-anchor:start;">Publish</text>
  <line x1="427.5" y1="855.0" x2="427.5" y2="900.0" style="stroke:black;stroke-width:1;"/>
  <text x="323.0" y="851.0" style="fill:black;font-size:14px;text-anchor:start;">Publish</text>
  <line x1="420.0" y1="892.5" x2="427.5" y2="900.0" style="stroke:black;stroke-width:1;"/>
  <line x1="427.5" y1="900.0" x2="435.0" y2="892.5" style="stroke:black;stroke-width:1;"/>
  <line x1="360.0" y1="945.0" x2="270.0" y2="945.0" style="stroke:black;stroke-width:1;"/>
  <text x="352.0" y="941.0" style="fill:black;font-size:14px;text-anchor:end;">Failed</text>
  <line x1="277.5" y1="937.5" x2="270.0" y2="945.0" style="stroke:black;stroke-width:1;"/>
  <line x1="270.0" y1="945.0" x2="277.5" y2="952.5" style="stroke:black;stroke-width:1;"/>
  <line x1="427.5" y1="990.0" x2="427.5" y2="1035.0" style="stroke:black;stroke-width:1;"/>
  <text x="431.5" y="998.0" style="fill:black;font-size:14px;text-anchor:start;" transform="rotate(90 431.5 998.0)">Succeded</text>
  <line x1="427.5" y1="1035.0" x2="270.0" y2="1035.0" style="stroke:black;stroke-width:1;"/>
  <text x="431.5" y="998.0" style="fill:black;font-size:14px;text-anchor:start;" transform="rotate(90 431.5 998.0)">Succeded</text>
  <line x1="277.5" y1="1027.5" x2="270.0" y2="1035.0" style="stroke:black;stroke-width:1;"/>
  <line x1="270.0" y1="1035.0" x2="277.5" y2="1042.5" style="stroke:black;stroke-width:1;"/>
  <line x1="270.0" y1="832.5" x2="180.0" y2="832.5" style="stroke:black;stroke-width:1;"/>
  <text x="262.0" y="828.5" style="fill:black;font-size:14px;text-anchor:end;">Unsubscribe</text>
  <line x1="187.5" y1="825.0" x2="180.0" y2="832.5" style="stroke:black;stroke-width:1;"/>
  <line x1="180.0" y1="832.5" x2="187.5" y2="840.0" style="stroke:black;stroke-width:1;"/>
  <line x1="562.5" y1="540.0" x2="562.5" y2="675.0" style="stroke:black;stroke-width:1;"/>
  <text x="566.5" y="548.0" style="fill:black;font-size:14px;text-anchor:start;" transform="rotate(90 566.5 548.0)">Connect,Publish,Unsubscribe</text>
  <line x1="562.5" y1="675.0" x2="630.0" y2="675.0" style="stroke:black;stroke-width:1;"/>
  <text x="566.5" y="548.0" style="fill:black;font-size:14px;text-anchor:start;" transform="rotate(90 566.5 548.0)">Connect,Publish,Unsubscribe</text>
  <line x1="622.5" y1="667.5" x2="630.0" y2="675.0" style="stroke:black;stroke-width:1;"/>
  <line x1="630.0" y1="675.0" x2="622.5" y2="682.5" style="stroke:black;stroke-width:1;"/>
  <line x1="472.5" y1="1125.0" x2="472.5" y2="1012.5" style="stroke:black;stroke-width:1;"/>
  <text x="468.5" y="1117.0" style="fill:black;font-size:14px;text-anchor:start;" transform="rotate(-90 468.5 1117.0)">Connect,Subscribe</text>
  <line x1="472.5" y1="1012.5" x2="540.0" y2="1012.5" style="stroke:black;stroke-width:1;"/>
  <text x="468.5" y="1117.0" style="fill:black;font-size:14px;text-anchor:start;" transform="rotate(-90 468.5 1117.0)">Connect,Subscribe</text>
  <line x1="532.5" y1="1005.0" x2="540.0" y2="1012.5" style="stroke:black;stroke-width:1;"/>
  <line x1="540.0" y1="1012.5" x2="532.5" y2="1020.0" style="stroke:black;stroke-width:1;"/>
  <line x1="720.0" y1="405.0" x2="652.5" y2="405.0" style="stroke:black;stroke-width:1;"/>
  <text x="712.0" y="401.0" style="fill:black;font-size:14px;text-anchor:end;">Disconnect,Subscribe,Publish,Unsubscribe</text>
  <line x1="652.5" y1="405.0" x2="652.5" y2="270.0" style="stroke:black;stroke-width:1;"/>
  <text x="712.0" y="401.0" style="fill:black;font-size:14px;text-anchor:end;">Disconnect,Subscribe,Publish,Unsubscribe</text>
  <line x1="645.0" y1="277.5" x2="652.5" y2="270.0" style="stroke:black;stroke-width:1;"/>
  <line x1="652.5" y1="270.0" x2="660.0" y2="277.5" style="stroke:black;stroke-width:1;"/>
</svg>